inDegrees=no
num_controls=7
num_derivatives=13
num_iterations=218
num_multipliers=7
num_parameters=0
num_slacks=7
num_states=26
objective=5.903205
objective_accelerations=0.791366
objective_balance=0.006810
objective_effort=0.530220
objective_height=4.528028
objective_ligament=0.046782
solver_duration=1809.572223
status=Solve_Succeeded
success=true
DataType=double
version=3
OpenSimVersion=4.4-2022-07-23-0e9fedc
endheader
time	/jointset/ground_pelvis/pelvis_tilt/value	/jointset/ground_pelvis/pelvis_tx/value	/jointset/ground_pelvis/pelvis_ty/value	/jointset/hip_r/hip_flexion_r/value	/jointset/hip_r/hip_adduction_r/value	/jointset/hip_r/hip_rotation_r/value	/jointset/back/lumbar_extension/value	/jointset/patellofemoral_r/patellar_flexion_r/value	/jointset/knee_r/knee_flexion_r/value	/jointset/knee_r/knee_adduction_r/value	/jointset/knee_r/knee_rotation_r/value	/jointset/ankle_r/ankle_angle_r/value	/jointset/subtalar_r/subtalar_angle_r/value	/jointset/ground_pelvis/pelvis_tilt/speed	/jointset/ground_pelvis/pelvis_tx/speed	/jointset/ground_pelvis/pelvis_ty/speed	/jointset/hip_r/hip_flexion_r/speed	/jointset/hip_r/hip_adduction_r/speed	/jointset/hip_r/hip_rotation_r/speed	/jointset/back/lumbar_extension/speed	/jointset/patellofemoral_r/patellar_flexion_r/speed	/jointset/knee_r/knee_flexion_r/speed	/jointset/knee_r/knee_adduction_r/speed	/jointset/knee_r/knee_rotation_r/speed	/jointset/ankle_r/ankle_angle_r/speed	/jointset/subtalar_r/subtalar_angle_r/speed	/forceset/tau_hip_flexion_r	/forceset/tau_hip_adduction_r	/forceset/tau_hip_rotation_r	/forceset/tau_knee_flexion_r	/forceset/tau_ankle_angle_r	/forceset/tau_subtalar_angle_r	/forceset/tau_lumbar_extension	lambda_cid13_p0	lambda_cid14_p0	lambda_cid14_p1	lambda_cid14_p2	lambda_cid14_p3	lambda_cid14_p4	lambda_cid14_p5	/jointset/ground_pelvis/pelvis_tilt/accel	/jointset/ground_pelvis/pelvis_tx/accel	/jointset/ground_pelvis/pelvis_ty/accel	/jointset/hip_r/hip_flexion_r/accel	/jointset/hip_r/hip_adduction_r/accel	/jointset/hip_r/hip_rotation_r/accel	/jointset/back/lumbar_extension/accel	/jointset/patellofemoral_r/patellar_flexion_r/accel	/jointset/knee_r/knee_flexion_r/accel	/jointset/knee_r/knee_adduction_r/accel	/jointset/knee_r/knee_rotation_r/accel	/jointset/ankle_r/ankle_angle_r/accel	/jointset/subtalar_r/subtalar_angle_r/accel	gamma_cid13_p0	gamma_cid14_p0	gamma_cid14_p1	gamma_cid14_p2	gamma_cid14_p3	gamma_cid14_p4	gamma_cid14_p5
1.5	-0.1043557029135482	0.00962276782250066	0.7868428129416056	0.9320847842786832	-0.2232836297951202	-0.1175046069675854	-0.6428311903874173	1.043885760694087	1.043885760694069	-0.07208264059825854	0.1745329251994329	0.313368214278698	0.1455774499347761	0.519158199103181	0.243236898427124	0.6368101355129815	-2.329264863876376	0.04830252359825626	-0.259104631833406	0.7960662232510778	-2.237413358506902	-2.237413358506891	0.4169747806038153	6.537114543061687e-05	-0.5302368638061952	-0.1397696824581293	-0.1745583515130407	-0.008345711869316378	0.02059377070967434	-0.3365976967402427	0.04574403334446506	0.004785518557739536	0.2246971139251522	-4.521598675888894	-26.78585035267749	-2.557387525645514	0.7676614861179597	-8.216185010613703	-626.8583662855549	71.99249684030866	0.38916945226826	0.7840813549932858	-0.6069467711347273	-1.254063619208857	-0.1615201448149046	-0.3772298170471933	2.108184181869059	-1.507845245711871	-1.507845245711874	0.6407347571118169	-0.05093960761692688	-0.827607213498067	-0.461897868486168	1.024066860551309e-07	-1.350305911964339e-07	-2.720897724784569e-06	-5.134647258360032e-07	3.40361527805404e-07	2.731335588641132e-07	-1.931457880394794e-06
1.51	-0.09914500289785919	0.01209407613069313	0.7931792711999713	0.9087316545596703	-0.222809637537481	-0.1201155098440581	-0.634766907228797	1.021438834990208	1.0214388349902	-0.06788037364777959	0.1745329247848514	0.3080250335732619	0.1441555963039042	0.5228915793324996	0.2509939815604768	0.630340821245496	-2.3410447148743	0.0465023671751879	-0.2631031088040781	0.8166757534850165	-2.251667198811534	-2.25166719881151	0.4233860719884236	-0.0001020666930784807	-0.5383012151739848	-0.1445312492221617	-0.1666021015430741	-0.00940109537819944	0.02028871751117946	-0.3311134115320655	0.04670860474518817	0.004356244802003145	0.2172546416449607	-5.411102554353906	-26.09440143953291	-2.481861843162284	0.5946886209134833	-8.218820685260642	-620.6445453414332	71.46084824615373	0.3518942877530061	0.7669365483376133	-0.6879569874706969	-1.092481657648068	-0.1882814382105415	-0.414912921760861	2.020139195963433	-1.338506402749622	-1.338506402747571	0.6271564267070752	-0.004834342041391793	-0.7810663688420264	-0.4730174609843178	1.684633269919553e-07	5.015876149137697e-09	-2.256345948575791e-06	4.740477143253601e-07	2.213344108230823e-07	3.27179541560344e-07	-1.449071468023e-06
1.52	-0.09389967468397875	0.01464203822138539	0.7994468296690791	0.8852702191671658	-0.2223534504535037	-0.1227671487471742	-0.6264999684174759	0.9988585002873014	0.9988585002873022	-0.06361682776394011	0.1745302067703635	0.3026041659000633	0.1426881807292674	0.5260838387413912	0.2585676549270845	0.6230301776614012	-2.350925998574777	0.04474148886580945	-0.2672518371620956	0.8365973537912412	-2.264095158312596	-2.264095158312558	0.4292305672759008	-0.0004770433345273055	-0.5457742573586796	-0.1488820712110953	-0.1586458515731088	-0.01045647888708105	0.01998366431267311	-0.3256291263238898	0.04767317614591153	0.003926971046268624	0.2098121693647681	-6.381642626318908	-25.39540769731664	-2.394056174239202	0.4072401126060803	-8.259348828337291	-614.3388970265412	70.99674074969178	0.2809452881828555	0.74739940164427	-0.7752126344565543	-0.8743501597192189	-0.1536645220768956	-0.4072800945162337	1.97059819632625	-1.142669084997814	-1.142669084997815	0.5273755376855938	-0.09244736820493182	-0.7093453768791549	-0.3797489134663602	2.091104158387463e-07	9.255995205249492e-08	-1.975486959724933e-06	1.089021248193118e-06	1.462430368031367e-07	3.688858804963292e-07	-1.173136112737976e-06
1.53	-0.08862509912814356	0.01726470787616075	0.8056371647081939	0.8617194474936524	-0.22191476512094	-0.1254601274716531	-0.6180374783116307	0.9761631433661472	0.9761631433661447	-0.05929671935739362	0.1745223862314138	0.2971114957650182	0.1411791288191493	0.5287411040244393	0.2659237919564086	0.6149042478994213	-2.358904055475108	0.04299818991548766	-0.2713297000646287	0.8557650586613377	-2.274657812417272	-2.274657812417252	0.4347359896937137	-0.001132719859500227	-0.5526607449641571	-0.1528685044673324	-0.1507974119558781	-0.01105941389325837	0.01970737936851358	-0.3202805597135636	0.04844212163153743	0.003009925533781058	0.2024159193291971	-7.432158032268162	-24.83051560543485	-2.578407754841116	0.3052589481741541	-8.090230261671637	-608.4094769851974	70.04621103525866	0.2446043581908346	0.7233687676660885	-0.8510879283853562	-0.7108733966021041	-0.184192776375474	-0.4055491350075646	1.869515324884788	-0.9653475614750939	-0.9653475614778477	0.5535936369577878	-0.05874322619621863	-0.663375260435871	-0.3992408865106165	2.227598555898771e-07	1.243202370485e-07	-1.889801557441864e-06	1.308172194123924e-06	1.178333896807152e-07	3.974813479370538e-07	-1.116555005607644e-06
1.54	-0.08332665347751274	0.01995966848404728	0.8117422794934257	0.8380986272628532	-0.2214934188168527	-0.1281933867745346	-0.6093873794185778	0.9533717031062914	0.9533717031062864	-0.05492326311804376	0.1745066858409036	0.2915529457923076	0.1396319825055071	0.5308578577004891	0.2730258455493192	0.6059861268847754	-2.364935710031923	0.04127368317054018	-0.2753079528425912	0.8741191112327718	-2.283311826052855	-2.283311826052854	0.439900133836673	-0.002053013646582489	-0.5589502248917877	-0.1565009519158989	-0.1429489723386484	-0.01166234889943695	0.01943109442436403	-0.3149319931032363	0.04921106711716311	0.002092880021291506	0.1950196692936251	-8.56063651123794	-24.25725415607977	-2.750648351868058	0.189186360013642	-7.960165312226695	-602.3819877080632	69.17082647397	0.172842966783208	0.6965827143615676	-0.9336508849897897	-0.4850696910163045	-0.149906081002037	-0.3873580696021238	1.807867736593784	-0.7609409911794353	-0.7609409911794356	0.4591198827148806	-0.1453708206267956	-0.5899438413097793	-0.3089517519322239	2.238672292286974e-07	1.42782953456718e-07	-1.75513633095394e-06	1.426627596769818e-06	9.270628206884281e-08	4.097895124274691e-07	-1.044944414598513e-06
1.55	-0.07800988445004831	0.02272431095614787	0.8177543183216804	0.8144274355707849	-0.2210891020466956	-0.1309656015647238	-0.6005578801274588	0.9305034492284624	0.9305034492284604	-0.05049988227939201	0.1744800485056129	0.2859346208281452	0.1380505039304337	0.5324000064170876	0.279852582454116	0.5962983922844133	-2.36896741312514	0.03959000373767545	-0.2791162961710026	0.8916240631157204	-2.290007971504132	-2.290007971504143	0.4447225663898209	-0.003311538795165735	-0.5646078356083801	-0.1597393477093597	-0.1349973272189801	-0.01263736737917306	0.01920431991432001	-0.3101589584654282	0.05028408305943907	0.001117341390970138	0.1875587101619633	-9.756711600308083	-23.61975539328578	-2.936349719273617	0.07446646175285662	-7.835561085151439	-596.7738521428398	68.40348533547176	0.130522881742843	0.6682211165991668	-1.00474177096486	-0.3119192304191161	-0.1774506215768142	-0.3744446484057956	1.698306332855681	-0.5743452429881304	-0.5743452429900081	0.4855834814025768	-0.1214109651314041	-0.5375726545845121	-0.3230312700182718	2.105239614772478e-07	1.459245582311823e-07	-1.564037828751728e-06	1.429064221283101e-06	7.136123084955937e-08	4.033318713447031e-07	-9.560172443377225e-07
1.56	-0.07268056952388881	0.02555572118490853	0.8236657983992504	0.7907259871253955	-0.2207015924202969	-0.1337752742249861	-0.5915580318337683	0.9075781551119436	0.9075781551119443	-0.04602992140725162	0.1744397623982047	0.2802629391632669	0.1364382918420326	0.5333670374394728	0.2863793968813328	0.5858743767478344	-2.370987060696147	0.03791225441888615	-0.2827995268572204	0.9081889117470796	-2.29471987379086	-2.294719873790883	0.4492161405344824	-0.004782768070041066	-0.5696215650349938	-0.1626476545814314	-0.1270456820993131	-0.01361238585891032	0.01897754540427996	-0.3053859238276197	0.05135709900171477	0.0001418027606468226	0.1800977510303005	-10.96249045520493	-22.97897228056599	-3.116334031412887	-0.04703923478289294	-7.731800895624957	-591.1271477573339	67.70508539658998	0.05781942794054785	0.6365982188455803	-1.080907072233112	-0.08265858657426797	-0.1487200581869563	-0.362335541163413	1.619847086275873	-0.3640923582695432	-0.3640923582695429	0.393348201017598	-0.1879116458852084	-0.4611675833140129	-0.2429339676544128	1.997877429606855e-07	1.386990308025464e-07	-1.499597732559323e-06	1.358419022152271e-06	6.790383474224702e-08	3.986096671432034e-07	-9.392704579260255e-07
1.57	-0.06734453208545721	0.02845080277904787	0.8294694478634386	0.7670145669236758	-0.2203307105255378	-0.1366214252540515	-0.5823973199081406	0.8846157499843544	0.8846157499843545	-0.04151711596707638	0.1743837252764152	0.2745444135724794	0.1347988480481781	0.5337423666375519	0.2925766910696897	0.5747424463382818	-2.370948293176121	0.03626649410445174	-0.286394210450379	0.9237804065796636	-2.297413899622127	-2.297413899622129	0.4532942718006581	-0.006466889652212134	-0.5739707534060218	-0.165184644686734	-0.1192044124177778	-0.0146030202278403	0.01876816321359357	-0.3008218220138079	0.05232954385898798	-0.0009891111372483049	0.1727375698718217	-12.16313812950393	-22.41606031294153	-3.386035692506529	-0.1444136948659109	-7.516146855753266	-585.9403861742881	66.91700428003625	0.01268470972484976	0.6022799251074381	-1.146217570665933	0.09946007074521136	-0.1721148521837486	-0.3522745906325135	1.502840661933121	-0.1700074808555398	-0.1700074808522501	0.4072197027967533	-0.1648181117899387	-0.4048147047353209	-0.2507411480976429	1.923103359877322e-07	1.185145881200356e-07	-1.593480643879173e-06	1.196421543466301e-06	8.680600752489834e-08	3.960567590432865e-07	-1.012749151325694e-06
